<svg viewBox="0 0 48 48" fill="none" xmlns="http://www.w3.org/2000/svg">
<path fill-rule="evenodd" clip-rule="evenodd" d="M21.5439 0C23.8445 1.4904 26.2448 2.81728 28.7276 3.97105C28.0399 4.84238 27.4649 5.79878 27.0167 6.81711C25.1375 5.88752 23.3117 4.85167 21.5478 3.71447C16.2001 7.91447 10.0477 10.0026 3.33277 9.63553C2.82495 29.1829 10.0477 40.0303 21.6182 44.2855C29.8956 41.1276 35.8605 34.7645 38.4582 25.0303H38.7551C39.7428 25.031 40.7273 24.9158 41.6887 24.6868C38.7512 36.5487 31.7238 44.1513 21.6182 48C7.67267 42.8645 -0.581344 30.2566 0.0319453 6.71053C7.36798 7.10526 14.5673 5.49474 21.5439 0.0197368V0Z" fill="#738C9A"/>
<path fill-rule="evenodd" clip-rule="evenodd" d="M15.7442 20.9578H16.3301V19.6512C16.327 18.1994 16.8783 16.8024 17.8692 15.7512C18.349 15.2327 18.9291 14.8194 19.5735 14.5368C20.2179 14.2542 20.9129 14.1084 21.6153 14.1084C22.3178 14.1084 23.0128 14.2542 23.6572 14.5368C24.3016 14.8194 24.8817 15.2327 25.3615 15.7512C26.3619 16.798 26.922 18.1959 26.924 19.6512V20.9578H27.506C27.735 20.9578 27.9546 21.0497 28.1165 21.2133C28.2784 21.3769 28.3693 21.5988 28.3693 21.8302V31.0473C28.3683 31.2783 28.277 31.4996 28.1153 31.663C27.9536 31.8264 27.7347 31.9186 27.506 31.9196H15.7442C15.5155 31.9186 15.2965 31.8264 15.1348 31.663C14.9732 31.4996 14.8819 31.2783 14.8809 31.0473V21.8302C14.8809 21.5988 14.9718 21.3769 15.1337 21.2133C15.2956 21.0497 15.5152 20.9578 15.7442 20.9578ZM17.9629 20.9578H25.2716V19.6512C25.278 18.6234 24.8902 17.6331 24.1896 16.8881C23.8606 16.5312 23.4624 16.2467 23.0199 16.0521C22.5773 15.8575 22.0999 15.7571 21.6173 15.7571C21.1347 15.7571 20.6572 15.8575 20.2147 16.0521C19.7721 16.2467 19.374 16.5312 19.045 16.8881C18.3443 17.6331 17.9565 18.6234 17.9629 19.6512V20.9578ZM20.9083 26.8433L19.9786 29.3104H23.256L22.3927 26.8078C22.7333 26.6299 23.0042 26.3406 23.1612 25.9871C23.3181 25.6336 23.3519 25.2368 23.2569 24.8615C23.1619 24.4861 22.9438 24.1543 22.6382 23.9204C22.3326 23.6864 21.9576 23.564 21.5742 23.5731C21.1909 23.5823 20.822 23.7225 20.5277 23.9709C20.2334 24.2192 20.0311 24.561 19.9539 24.9405C19.8766 25.32 19.9289 25.7148 20.1022 26.0604C20.2756 26.4059 20.5597 26.6819 20.9083 26.8433Z" fill="#738C9A"/>
<path fill-rule="evenodd" clip-rule="evenodd" d="M38.7609 2.73047C40.588 2.73047 42.3742 3.27799 43.8934 4.30379C45.4127 5.32959 46.5968 6.7876 47.296 8.49344C47.9953 10.1993 48.1782 12.0764 47.8217 13.8873C47.4653 15.6982 46.5854 17.3616 45.2934 18.6672C44.0014 19.9728 42.3553 20.8619 40.5632 21.2221C38.7711 21.5824 36.9136 21.3975 35.2255 20.6909C33.5374 19.9843 32.0945 18.7878 31.0794 17.2525C30.0643 15.7173 29.5225 13.9124 29.5225 12.066C29.5225 9.59006 30.4958 7.21553 32.2283 5.46478C33.9609 3.71403 36.3107 2.73047 38.7609 2.73047ZM36.6358 11.841C36.9016 12.066 37.1509 12.31 37.3819 12.5713C38.089 11.4256 38.872 10.3297 39.7257 9.291C42.0695 6.45679 40.9953 7.00547 44.218 7.00547L43.7492 7.51863C42.6581 8.76904 41.6667 10.1048 40.7843 11.5134C39.6666 13.1452 38.6528 14.8474 37.7491 16.6094L37.4718 17.1542L37.214 16.6015C36.759 15.5969 36.183 14.6529 35.4991 13.791C34.8822 13.0046 34.1466 12.3212 33.3194 11.766C33.7374 10.3726 35.7374 11.087 36.6319 11.8528L36.6358 11.841Z" fill="#00B67A"/>
</svg>
