<svg viewBox="0 0 48 48" fill="none" xmlns="http://www.w3.org/2000/svg">
<path d="M17.736 12.7575C17.9525 12.2087 18.3528 11.766 18.8585 11.5161C19.4294 11.2549 20.068 11.2168 20.6624 11.4085C21.2885 11.5984 21.8737 11.9175 22.385 12.3478C23.3077 13.1443 24.0645 14.1379 24.6071 15.2652C25.1497 16.3924 25.4661 17.6284 25.536 18.8939C25.592 19.8591 25.5791 20.8274 25.4973 21.7905C25.4469 22.4691 25.3656 23.1849 25.2534 23.9256H31.8069C32.8357 23.9592 33.8452 24.2332 34.7644 24.7283C35.4953 25.1223 36.1202 25.7091 36.5798 26.4332C37.0536 27.2066 37.2853 28.1209 37.2418 29.0442C37.1988 29.8802 36.9973 30.6981 36.6495 31.4483C36.8819 32.3927 36.9424 33.376 36.8276 34.3448C36.7378 35.0883 36.4207 35.7793 35.9256 36.3103C35.9639 37.4218 35.8049 38.5309 35.4573 39.5792C35.1385 40.4945 34.641 41.3268 33.9979 42.0206C33.9498 42.6093 33.8527 43.1923 33.7076 43.7626C33.5404 44.4318 33.2653 45.0647 32.8947 45.6329C31.7798 47.3129 30.8895 47.2881 29.4805 47.2095C29.2831 47.2095 29.0934 47.2095 28.7489 47.2095H15.9747C14.9849 47.2524 13.9999 47.041 13.1024 46.5929C12.2143 46.0788 11.4436 45.361 10.8456 44.4909L10.6831 43.8909V27.9807L11.3334 27.7945C12.9669 27.3104 14.2598 25.8166 15.2702 24.0001C16.2303 22.1766 16.9877 20.2393 17.5269 18.2277V14.0898C17.4813 13.6296 17.5535 13.1648 17.736 12.745V12.7575ZM1.53984 26.3173H7.86887C8.0412 26.3178 8.21174 26.3547 8.37076 26.4257C8.52977 26.4966 8.67415 26.6004 8.79565 26.7311C8.91714 26.8617 9.01337 27.0167 9.07885 27.1871C9.14433 27.3575 9.17777 27.54 9.17726 27.7242V46.3157C9.17624 46.6863 9.03806 47.0414 8.79291 47.3034C8.54776 47.5655 8.21556 47.7132 7.86887 47.7143H1.53984C1.36751 47.7137 1.19697 47.6769 1.03795 47.6059C0.878936 47.5349 0.734559 47.4312 0.613064 47.3005C0.491569 47.1699 0.395335 47.0149 0.329858 46.8445C0.264381 46.6741 0.230942 46.4916 0.231451 46.3074V27.7242C0.230942 27.54 0.264381 27.3575 0.329858 27.1871C0.395335 27.0167 0.491569 26.8617 0.613064 26.7311C0.734559 26.6004 0.878936 26.4966 1.03795 26.4257C1.19697 26.3547 1.36751 26.3178 1.53984 26.3173ZM19.5863 13.1878C19.4982 13.2477 19.4237 13.3278 19.3682 13.4222C19.3126 13.5167 19.2774 13.6232 19.265 13.734V18.3726L19.2263 18.6374C18.643 20.8457 17.8138 22.9713 16.7566 24.9683C15.665 26.8966 14.2521 28.589 12.4134 29.3793V43.5805C12.8137 44.1336 13.3173 44.5916 13.8921 44.9254C14.5509 45.239 15.27 45.3808 15.9902 45.3391H28.7644C28.9927 45.3391 29.2869 45.3391 29.5656 45.364C30.4018 45.3971 30.9282 45.4219 31.5011 44.5695C31.7552 44.1742 31.9425 43.7345 32.0547 43.2702C32.197 42.7091 32.2839 42.1335 32.314 41.553L32.5811 40.9406C33.1435 40.3894 33.577 39.7048 33.8469 38.942C34.1541 37.9738 34.2688 36.9478 34.1837 35.9296L34.1527 35.3793L34.5902 35.0896C34.7438 34.9677 34.871 34.8118 34.9632 34.6326C35.0554 34.4533 35.1103 34.255 35.1244 34.051C35.2101 33.216 35.135 32.3711 34.9037 31.5683L34.9734 30.8938C35.2797 30.2999 35.462 29.642 35.5076 28.9655C35.5327 28.4269 35.3972 27.8937 35.1205 27.4428C34.8238 26.9848 34.4246 26.6135 33.9592 26.3628C33.2812 25.9999 32.5377 25.798 31.7798 25.7711H23.1708L23.3644 24.6704C23.5502 23.6028 23.6856 22.6015 23.7515 21.6208C23.8265 20.75 23.8407 19.8745 23.794 19.0015C23.7415 18.001 23.4945 17.0231 23.0686 16.1304C22.6426 15.2377 22.0473 14.4497 21.3205 13.8167C20.9923 13.5355 20.6164 13.3248 20.2134 13.1961C20.0063 13.1207 19.7817 13.1207 19.5747 13.1961L19.5863 13.1878Z" fill="#738C9A"/>
<path fill-rule="evenodd" clip-rule="evenodd" d="M37.0027 2.89649C38.8097 2.89567 40.5763 3.4677 42.0792 4.54024C43.582 5.61278 44.7535 7.13764 45.4456 8.92196C46.1376 10.7063 46.3191 12.6699 45.967 14.5645C45.6149 16.4591 44.7452 18.1995 43.4677 19.5656C42.1902 20.9317 40.5625 21.8622 38.7902 22.2394C37.018 22.6165 35.181 22.4233 33.5115 21.6843C31.842 20.9453 30.415 19.6937 29.411 18.0877C28.407 16.4817 27.8711 14.5935 27.8711 12.6619C27.8721 10.073 28.8344 7.59039 30.5466 5.75938C32.2588 3.92837 34.5808 2.89868 37.0027 2.89649ZM34.3937 11.2467L35.7756 12.6288L39.3717 8.71021C39.6892 8.36677 39.8904 8.08953 40.2814 8.51987L41.5472 9.9102C41.9653 10.3488 41.9343 10.6095 41.5472 11.0191L36.4995 16.3446C35.6711 17.2136 35.8143 17.2674 34.9743 16.3736L32.2646 13.4771C32.2275 13.4358 32.1987 13.3867 32.1802 13.333C32.1617 13.2792 32.1538 13.2219 32.1571 13.1647C32.1604 13.1076 32.1747 13.0517 32.1992 13.0008C32.2237 12.9498 32.2579 12.9049 32.2995 12.8688L33.7743 11.2385C33.995 10.986 34.1614 11.0067 34.4014 11.2385L34.3937 11.2467Z" fill="#00B67A"/>
</svg>
