<svg viewBox="0 0 49 48" fill="none" xmlns="http://www.w3.org/2000/svg">
<g clip-path="url(#userSecureClip)">
<path fill-rule="evenodd" clip-rule="evenodd" d="M24.2896 0C33.2382 4.98047 41.3101 7.33594 48.2651 6.77734C48.7902 16.1133 47.3752 23.7891 44.3093 29.9219C43.4398 29.3206 42.4856 28.8204 41.4703 28.4336C43.9177 23.3164 45.0301 16.9688 44.5852 9.29297C38.7248 9.76563 31.8765 7.76953 24.303 3.55078C17.7262 8.02344 10.9803 9.33203 4.08307 9.01563C3.77603 19.2383 5.82294 26.9531 9.77882 32.5391C12.7023 30.3945 17.6817 30.7148 20.0134 27.8516C20.137 27.728 20.2228 27.5787 20.2625 27.418C20.2625 27.3672 17.7039 24.6133 17.4725 24.293C16.8718 23.4531 15.7415 22.3086 15.7415 21.3242C15.7657 21.009 15.8963 20.7073 16.1166 20.4575C16.3369 20.2078 16.637 20.0213 16.9786 19.9219C16.9252 19.0859 16.8896 18.2422 16.8896 17.4063C16.8896 16.9102 16.8896 16.4102 16.9207 15.918C16.9522 15.6641 17.0149 15.4139 17.1076 15.1719C17.5437 13.9162 18.4951 12.8472 19.7775 12.1719C20.2372 11.9216 20.7266 11.7159 21.2371 11.5586C22.1626 11.2617 21.7132 9.99609 22.7277 9.96484C25.095 9.91016 28.9931 11.7266 30.5104 13.1719C31.4768 14.0397 32.0387 15.1934 32.0857 16.4063L31.9878 20.0469C32.2126 20.0865 32.4221 20.1764 32.5959 20.3077C32.7697 20.4391 32.902 20.6076 32.9801 20.7969C33.3049 21.9453 31.9477 23.375 31.3159 24.2891C30.7329 25.1328 28.508 27.4375 28.508 27.4531C28.508 27.5547 28.5525 27.6758 28.7083 27.8789C29.0669 28.3083 29.4975 28.6876 29.9854 29.0039C29.0534 29.4739 28.1923 30.0448 27.4223 30.7031L27.2799 30.8164C25.0748 32.752 23.748 35.3261 23.5474 38.0579C23.3467 40.7896 24.286 43.492 26.1897 45.6602C25.5979 45.8867 24.9971 46.1016 24.3831 46.3047C8.88885 41.3438 -0.273284 29.1836 0.407535 6.45313C8.55512 6.84375 16.547 5.28125 24.2896 0Z" fill="#738C9A"/>
<path fill-rule="evenodd" clip-rule="evenodd" d="M36.3623 29.5669C38.4395 29.5661 40.4703 30.1061 42.1979 31.1186C43.9254 32.1311 45.2721 33.5706 46.0676 35.2551C46.8632 36.9395 47.0718 38.7932 46.6671 40.5817C46.2624 42.3703 45.2625 44.0132 43.794 45.3029C42.3256 46.5926 40.4544 47.4709 38.4171 47.827C36.3799 48.183 34.2682 48.0007 32.349 47.303C30.4299 46.6054 28.7895 45.4238 27.6354 43.9077C26.4813 42.3916 25.8652 40.6091 25.8652 38.7856C25.8664 36.3417 26.9726 33.998 28.9408 32.2695C30.909 30.541 33.5783 29.569 36.3623 29.5669ZM33.3631 37.4497L34.9517 38.7544L39.0856 35.0552C39.4505 34.731 39.6819 34.4692 40.1313 34.8755L41.5864 36.188C42.067 36.6021 42.0314 36.8481 41.5864 37.2349L35.7838 42.2622C34.8316 43.0825 34.9962 43.1333 34.0306 42.2896L30.9158 39.5552C30.873 39.5162 30.84 39.4699 30.8187 39.4192C30.7974 39.3684 30.7884 39.3143 30.7921 39.2603C30.7959 39.2064 30.8124 39.1537 30.8406 39.1056C30.8687 39.0575 30.908 39.015 30.9558 38.981L32.6512 37.4419C32.9048 37.2036 33.0962 37.2231 33.3721 37.4419L33.3631 37.4497Z" fill="#00B67A"/>
</g>
<defs>
<clipPath id="userSecureClip">
<rect width="48" height="48" fill="white" transform="translate(0.37207)"/>
</clipPath>
</defs>
</svg>
